<svg id="visual" viewBox="0 0 900 600" width="900" height="600" xmlns="http://www.w3.org/2000/svg" xmlns:xlink="http://www.w3.org/1999/xlink" version="1.1"><rect x="0" y="0" width="900" height="600" fill="#001220"></rect><path d="M0 389L21.5 395.7C43 402.3 86 415.7 128.8 419.5C171.7 423.3 214.3 417.7 257.2 411.5C300 405.3 343 398.7 385.8 397.7C428.7 396.7 471.3 401.3 514.2 408.8C557 416.3 600 426.7 642.8 419.3C685.7 412 728.3 387 771.2 374.8C814 362.7 857 363.3 878.5 363.7L900 364L900 601L878.5 601C857 601 814 601 771.2 601C728.3 601 685.7 601 642.8 601C600 601 557 601 514.2 601C471.3 601 428.7 601 385.8 601C343 601 300 601 257.2 601C214.3 601 171.7 601 128.8 601C86 601 43 601 21.5 601L0 601Z" fill="#fa7268"></path><path d="M0 457L21.5 458C43 459 86 461 128.8 464.3C171.7 467.7 214.3 472.3 257.2 461.7C300 451 343 425 385.8 419.8C428.7 414.7 471.3 430.3 514.2 440.2C557 450 600 454 642.8 445.3C685.7 436.7 728.3 415.3 771.2 407.8C814 400.3 857 406.7 878.5 409.8L900 413L900 601L878.5 601C857 601 814 601 771.2 601C728.3 601 685.7 601 642.8 601C600 601 557 601 514.2 601C471.3 601 428.7 601 385.8 601C343 601 300 601 257.2 601C214.3 601 171.7 601 128.8 601C86 601 43 601 21.5 601L0 601Z" fill="#ef5f67"></path><path d="M0 446L21.5 449C43 452 86 458 128.8 468.2C171.7 478.3 214.3 492.7 257.2 492C300 491.3 343 475.7 385.8 470.7C428.7 465.7 471.3 471.3 514.2 469.8C557 468.3 600 459.7 642.8 454.3C685.7 449 728.3 447 771.2 446.7C814 446.3 857 447.7 878.5 448.3L900 449L900 601L878.5 601C857 601 814 601 771.2 601C728.3 601 685.7 601 642.8 601C600 601 557 601 514.2 601C471.3 601 428.7 601 385.8 601C343 601 300 601 257.2 601C214.3 601 171.7 601 128.8 601C86 601 43 601 21.5 601L0 601Z" fill="#e34c67"></path><path d="M0 515L21.5 518.5C43 522 86 529 128.8 532.5C171.7 536 214.3 536 257.2 532.5C300 529 343 522 385.8 514.5C428.7 507 471.3 499 514.2 499.2C557 499.3 600 507.7 642.8 506.2C685.7 504.7 728.3 493.3 771.2 493.7C814 494 857 506 878.5 512L900 518L900 601L878.5 601C857 601 814 601 771.2 601C728.3 601 685.7 601 642.8 601C600 601 557 601 514.2 601C471.3 601 428.7 601 385.8 601C343 601 300 601 257.2 601C214.3 601 171.7 601 128.8 601C86 601 43 601 21.5 601L0 601Z" fill="#d53867"></path><path d="M0 555L21.5 556.3C43 557.7 86 560.3 128.8 562.2C171.7 564 214.3 565 257.2 564.7C300 564.3 343 562.7 385.8 562.7C428.7 562.7 471.3 564.3 514.2 564.8C557 565.3 600 564.7 642.8 562.8C685.7 561 728.3 558 771.2 553C814 548 857 541 878.5 537.5L900 534L900 601L878.5 601C857 601 814 601 771.2 601C728.3 601 685.7 601 642.8 601C600 601 557 601 514.2 601C471.3 601 428.7 601 385.8 601C343 601 300 601 257.2 601C214.3 601 171.7 601 128.8 601C86 601 43 601 21.5 601L0 601Z" fill="#c62368"></path></svg>